<svg xmlns="http://www.w3.org/2000/svg" width="50.736" height="43.6" viewBox="0 0 50.736 43.6">
  <defs>
    <style>
      .cls-1 {
        fill: #008b67;
      }
    </style>
  </defs>
  <path id="路径_1360" data-name="路径 1360" class="cls-1" d="M120.64,2379.445,96.634,2360.76H96.5c-.13,0-.13-.13-.26-.13s-.13,0-.26-.13h-.519c-.13,0-.13,0-.26.13-.13,0-.13.13-.26.13h-.13l-24.006,18.685a1.4,1.4,0,0,0-.26,1.817,1.18,1.18,0,0,0,1.038.519,1.849,1.849,0,0,0,.779-.259L74.7,2379.7V2398a6.228,6.228,0,0,0,1.427,4.282,5.678,5.678,0,0,0,4.412,1.687h10.9v-11.03a2.083,2.083,0,0,1,2.206-2.206h3.763c1.946,0,2.076,1.687,2.206,2.206v11.16h10.9a5.5,5.5,0,0,0,4.412-1.687,6.117,6.117,0,0,0,1.427-4.152v-18.426l2.336,1.817a1.843,1.843,0,0,0,.779.26,1.18,1.18,0,0,0,1.038-.519C121.288,2380.613,121.159,2379.834,120.64,2379.445Zm-6.488,18.686a3.223,3.223,0,0,1-.779,2.336,3.662,3.662,0,0,1-2.6.908h-8.3v-8.564a4.572,4.572,0,0,0-4.8-4.672H93.909a4.844,4.844,0,0,0-4.8,4.8v8.564H80.8a2.98,2.98,0,0,1-3.374-3.374v-20.372l18.3-14.274,18.3,14.274Z" transform="translate(-70.325 -2360.5)"/>
</svg>
