<svg xmlns="http://www.w3.org/2000/svg" width="160" height="110" viewBox="0 0 160 110">
  <defs>
    <style>
      .cls-1 {
        fill: #e4e4e4;
      }
    </style>
  </defs>
  <g id="组_2841" data-name="组 2841" transform="translate(-34 -852.016)">
    <path id="减去_73" data-name="减去 73" class="cls-1" d="M119.645,110a14.606,14.606,0,0,1-14.5-14.67H50.754a14.5,14.5,0,1,1-28.993,0H3a3,3,0,0,1-3-3V77H7.25v9a2,2,0,0,0,2,2H23.707a14.714,14.714,0,0,1,5.211-5.308,14.322,14.322,0,0,1,14.679,0A14.714,14.714,0,0,1,48.807,88H94.265V9.333a2,2,0,0,0-2-2H9.251a2,2,0,0,0-2,2V22H0V3A3,3,0,0,1,3,0H98.516a3,3,0,0,1,3,3V18.333h30.758a20,20,0,0,1,20,20v55a2,2,0,0,1-2,2H134.142A14.605,14.605,0,0,1,119.645,110Zm0-21.994a7.33,7.33,0,1,0,7.259,7.319A7.3,7.3,0,0,0,119.645,88.006Zm-83.388,0a7.33,7.33,0,1,0,7.259,7.319A7.3,7.3,0,0,0,36.257,88.006Zm83.388-7.341a14.333,14.333,0,0,1,7.34,2.023A14.714,14.714,0,0,1,132.2,88h11.827a1,1,0,0,0,1-1V39.666a14.016,14.016,0,0,0-14-14H101.516V88h5.578a14.72,14.72,0,0,1,5.211-5.308A14.331,14.331,0,0,1,119.645,80.664Z" transform="translate(41.726 852.016)"/>
    <rect id="矩形_1329" data-name="矩形 1329" class="cls-1" width="34.765" height="19.314" rx="9.657" transform="translate(159.235 893.289)"/>
    <rect id="矩形_1330" data-name="矩形 1330" class="cls-1" width="46.353" height="7.725" rx="3.863" transform="translate(34 903.151)"/>
    <rect id="矩形_1331" data-name="矩形 1331" class="cls-1" width="19.314" height="7.725" rx="3.863" transform="translate(45.588 892.194)"/>
    <rect id="矩形_1332" data-name="矩形 1332" class="cls-1" width="19.314" height="7.725" rx="3.863" transform="translate(37.863 881.237)"/>
    <rect id="矩形_1333" data-name="矩形 1333" class="cls-1" width="19.314" height="7.725" rx="3.863" transform="translate(41.725 914.109)"/>
  </g>
</svg>
