<svg xmlns="http://www.w3.org/2000/svg" width="88.004" height="88.004" viewBox="0 0 88.004 88.004">
  <defs>
    <style>
      .cls-1 {
        fill: #77ceb8;
        opacity: 0.4;
      }
    </style>
  </defs>
  <path id="减去_103" data-name="减去 103" class="cls-1" d="M17968,11888a43.865,43.865,0,1,1,17.127-3.458A43.7,43.7,0,0,1,17968,11888Zm0-71.287a4.952,4.952,0,0,0-4.285,2.428l-21.174,35.286a5,5,0,0,0,4.289,7.571h42.338a5,5,0,0,0,4.291-7.571l-21.174-35.286A4.952,4.952,0,0,0,17968,11816.715Zm0,35.286A3,3,0,1,1,17971,11849,3.01,3.01,0,0,1,17968,11852Zm0-9a2.005,2.005,0,0,1-2.008-2v-11a2,2,0,1,1,4,0v11A2,2,0,0,1,17968,11843Z" transform="translate(-17923.998 -11799.998)"/>
</svg>
